<?xml version="1.0" encoding="iso-8859-1"?>
<!-- Generator: Adobe Illustrator 19.0.0, SVG Export Plug-In . SVG Version: 6.00 Build 0)  -->
<svg version="1.1" id="Capa_1" xmlns="http://www.w3.org/2000/svg" xmlns:xlink="http://www.w3.org/1999/xlink" x="0px" y="0px"
	 viewBox="0 0 480.194 480.194" style="enable-background:new 0 0 480.194 480.194;" xml:space="preserve">
<g>
	<g>
		<path d="M479.746,469.842L386.93,168.194h85.168c4.418,0,8-3.582,8-8v-96c0-4.418-3.582-8-8-8h0h-91.056
			c13.362-11.567,14.817-31.776,3.25-45.138c-11.567-13.362-31.776-14.817-45.138-3.25c-13.362,11.567-14.817,31.776-3.25,45.138
			c1.004,1.16,2.09,2.246,3.25,3.25H141.042c13.362-11.567,14.817-31.776,3.25-45.138c-11.567-13.362-31.776-14.817-45.138-3.25
			c-13.362,11.567-14.817,31.776-3.25,45.138c1.004,1.16,2.09,2.246,3.25,3.25H8.098c-4.418,0-8,3.582-8,8v96c0,4.418,3.582,8,8,8
			h85.168L0.45,469.842c-1.299,4.223,1.071,8.699,5.294,9.998c0.762,0.235,1.556,0.354,2.354,0.354h64
			c3.513,0.001,6.615-2.29,7.648-5.648l30.256-98.352h260.192l30.256,98.352c1.033,3.358,4.135,5.649,7.648,5.648h64
			c4.418,0.001,8.001-3.58,8.002-7.998C480.1,471.398,479.981,470.605,479.746,469.842z M464.098,152.194H427.41l36.688-36.688
			V152.194z M464.098,72.194v20.688l-59.312,59.312H339.41l80-80H464.098z M360.098,16.194c8.837,0,16,7.163,16,16s-7.163,16-16,16
			s-16-7.163-16-16S351.262,16.194,360.098,16.194z M396.786,72.194l-80,80H251.41l80-80H396.786z M350.498,312.194h-220.8
			l44.312-144h132.176L350.498,312.194z M308.786,72.194l-80,80H163.41l80-80H308.786z M120.098,16.194c8.837,0,16,7.163,16,16
			s-7.163,16-16,16s-16-7.163-16-16S111.262,16.194,120.098,16.194z M16.098,72.194h28.688l-28.688,28.688V72.194z M16.098,152.194
			v-28.688L67.41,72.194h65.376l-80,80H16.098z M75.41,152.194l80-80h65.376l-80,80H75.41z M66.186,464.194H18.93l91.08-296h47.256
			L66.186,464.194z M114.938,360.194l9.864-32h230.592l9.864,32H114.938z M414.01,464.194l-91.08-296h47.256l91.08,296H414.01z"/>
	</g>
</g>
<g>
</g>
<g>
</g>
<g>
</g>
<g>
</g>
<g>
</g>
<g>
</g>
<g>
</g>
<g>
</g>
<g>
</g>
<g>
</g>
<g>
</g>
<g>
</g>
<g>
</g>
<g>
</g>
<g>
</g>
</svg>
