<svg id="visual" viewBox="0 0 900 600" width="900" height="600" xmlns="http://www.w3.org/2000/svg" xmlns:xlink="http://www.w3.org/1999/xlink" version="1.1"><rect x="0" y="0" width="900" height="600" fill="#FFFFFF"></rect><path d="M0 388L37.5 401.7C75 415.3 150 442.7 225 456.5C300 470.3 375 470.7 450 451.8C525 433 600 395 675 376.5C750 358 825 359 862.5 359.5L900 360L900 601L862.5 601C825 601 750 601 675 601C600 601 525 601 450 601C375 601 300 601 225 601C150 601 75 601 37.5 601L0 601Z" fill="#72ffd7" stroke-linecap="round" stroke-linejoin="miter"></path></svg>